%TF.GenerationSoftware,KiCad,Pcbnew,9.0.1*%
%TF.CreationDate,2025-05-30T03:40:45-05:00*%
%TF.ProjectId,ME433HW15,4d453433-3348-4573-9135-2e6b69636164,rev?*%
%TF.SameCoordinates,Original*%
%TF.FileFunction,Copper,L1,Top*%
%TF.FilePolarity,Positive*%
%FSLAX46Y46*%
G04 Gerber Fmt 4.6, Leading zero omitted, Abs format (unit mm)*
G04 Created by KiCad (PCBNEW 9.0.1) date 2025-05-30 03:40:45*
%MOMM*%
%LPD*%
G01*
G04 APERTURE LIST*
G04 Aperture macros list*
%AMRoundRect*
0 Rectangle with rounded corners*
0 $1 Rounding radius*
0 $2 $3 $4 $5 $6 $7 $8 $9 X,Y pos of 4 corners*
0 Add a 4 corners polygon primitive as box body*
4,1,4,$2,$3,$4,$5,$6,$7,$8,$9,$2,$3,0*
0 Add four circle primitives for the rounded corners*
1,1,$1+$1,$2,$3*
1,1,$1+$1,$4,$5*
1,1,$1+$1,$6,$7*
1,1,$1+$1,$8,$9*
0 Add four rect primitives between the rounded corners*
20,1,$1+$1,$2,$3,$4,$5,0*
20,1,$1+$1,$4,$5,$6,$7,0*
20,1,$1+$1,$6,$7,$8,$9,0*
20,1,$1+$1,$8,$9,$2,$3,0*%
G04 Aperture macros list end*
%TA.AperFunction,SMDPad,CuDef*%
%ADD10RoundRect,0.250000X0.450000X-0.262500X0.450000X0.262500X-0.450000X0.262500X-0.450000X-0.262500X0*%
%TD*%
%TA.AperFunction,SMDPad,CuDef*%
%ADD11RoundRect,0.218750X-0.218750X-0.381250X0.218750X-0.381250X0.218750X0.381250X-0.218750X0.381250X0*%
%TD*%
%TA.AperFunction,SMDPad,CuDef*%
%ADD12RoundRect,0.150000X-0.512500X-0.150000X0.512500X-0.150000X0.512500X0.150000X-0.512500X0.150000X0*%
%TD*%
%TA.AperFunction,SMDPad,CuDef*%
%ADD13RoundRect,0.250000X-0.250000X-0.475000X0.250000X-0.475000X0.250000X0.475000X-0.250000X0.475000X0*%
%TD*%
%TA.AperFunction,SMDPad,CuDef*%
%ADD14RoundRect,0.250000X0.650000X-1.000000X0.650000X1.000000X-0.650000X1.000000X-0.650000X-1.000000X0*%
%TD*%
%TA.AperFunction,ComponentPad*%
%ADD15R,1.700000X1.700000*%
%TD*%
%TA.AperFunction,ComponentPad*%
%ADD16C,1.700000*%
%TD*%
%TA.AperFunction,SMDPad,CuDef*%
%ADD17RoundRect,0.250000X-0.262500X-0.450000X0.262500X-0.450000X0.262500X0.450000X-0.262500X0.450000X0*%
%TD*%
%TA.AperFunction,SMDPad,CuDef*%
%ADD18RoundRect,0.243750X-0.243750X-0.456250X0.243750X-0.456250X0.243750X0.456250X-0.243750X0.456250X0*%
%TD*%
%TA.AperFunction,Conductor*%
%ADD19C,0.200000*%
%TD*%
G04 APERTURE END LIST*
D10*
%TO.P,R4,1*%
%TO.N,Net-(D2-K)*%
X144500000Y-115825000D03*
%TO.P,R4,2*%
%TO.N,GND*%
X144500000Y-114000000D03*
%TD*%
D11*
%TO.P,L1,1,1*%
%TO.N,Net-(D1-A)*%
X151937500Y-108000000D03*
%TO.P,L1,2,2*%
%TO.N,VCC*%
X154062500Y-108000000D03*
%TD*%
D12*
%TO.P,U1,1,SW*%
%TO.N,Net-(D1-A)*%
X153862500Y-111050000D03*
%TO.P,U1,2,GND*%
%TO.N,GND*%
X153862500Y-112000000D03*
%TO.P,U1,3,FB*%
%TO.N,Net-(U1-FB)*%
X153862500Y-112950000D03*
%TO.P,U1,4,EN*%
%TO.N,VCC*%
X156137500Y-112950000D03*
%TO.P,U1,5,IN*%
X156137500Y-112000000D03*
%TO.P,U1,6,OC*%
%TO.N,Net-(U1-OC)*%
X156137500Y-111050000D03*
%TD*%
D13*
%TO.P,C1,1*%
%TO.N,VCC*%
X156100000Y-108000000D03*
%TO.P,C1,2*%
%TO.N,GND*%
X158000000Y-108000000D03*
%TD*%
D14*
%TO.P,D1,1,K*%
%TO.N,+5V*%
X140500000Y-114000000D03*
%TO.P,D1,2,A*%
%TO.N,Net-(D1-A)*%
X140500000Y-110000000D03*
%TD*%
D15*
%TO.P,J1,1,Pin_1*%
%TO.N,VCC*%
X161000000Y-109460000D03*
D16*
%TO.P,J1,2,Pin_2*%
%TO.N,GND*%
X161000000Y-112000000D03*
%TO.P,J1,3,Pin_3*%
%TO.N,+5V*%
X161000000Y-114540000D03*
%TD*%
D17*
%TO.P,R2,1*%
%TO.N,Net-(U1-FB)*%
X147587500Y-112000000D03*
%TO.P,R2,2*%
%TO.N,GND*%
X149412500Y-112000000D03*
%TD*%
D18*
%TO.P,D2,1,K*%
%TO.N,Net-(D2-K)*%
X152062500Y-116000000D03*
%TO.P,D2,2,A*%
%TO.N,+5V*%
X153937500Y-116000000D03*
%TD*%
D13*
%TO.P,C2,1*%
%TO.N,+5V*%
X156100000Y-116000000D03*
%TO.P,C2,2*%
%TO.N,GND*%
X158000000Y-116000000D03*
%TD*%
D17*
%TO.P,R3,1*%
%TO.N,Net-(U1-OC)*%
X147587500Y-115000000D03*
%TO.P,R3,2*%
%TO.N,GND*%
X149412500Y-115000000D03*
%TD*%
%TO.P,R1,1*%
%TO.N,+5V*%
X143857500Y-111500000D03*
%TO.P,R1,2*%
%TO.N,Net-(U1-FB)*%
X145682500Y-111500000D03*
%TD*%
D19*
%TO.N,VCC*%
X158960000Y-112000000D02*
X158960000Y-111500000D01*
X155162500Y-107062500D02*
X156100000Y-108000000D01*
X158485160Y-106974000D02*
X157514840Y-106974000D01*
X156137500Y-112950000D02*
X157087500Y-112000000D01*
X155000000Y-107062500D02*
X154062500Y-108000000D01*
X155000000Y-107062500D02*
X155162500Y-107062500D01*
X158960000Y-111500000D02*
X161000000Y-109460000D01*
X158801000Y-107289840D02*
X158485160Y-106974000D01*
X157087500Y-112000000D02*
X157500000Y-112000000D01*
X155000000Y-108000000D02*
X155000000Y-107062500D01*
X161000000Y-107601000D02*
X160601000Y-108000000D01*
X157199000Y-108000000D02*
X155000000Y-108000000D01*
X157514840Y-106974000D02*
X157199000Y-107289840D01*
X157500000Y-112000000D02*
X158960000Y-112000000D01*
X161000000Y-109460000D02*
X161000000Y-107601000D01*
X156137500Y-112000000D02*
X157500000Y-112000000D01*
X158801000Y-108000000D02*
X158801000Y-107289840D01*
X157199000Y-107289840D02*
X157199000Y-108000000D01*
X160601000Y-108000000D02*
X158801000Y-108000000D01*
%TO.N,Net-(U1-OC)*%
X155174000Y-112942968D02*
X155174000Y-111659032D01*
X151000000Y-115585354D02*
X153034354Y-113551000D01*
X153034354Y-113551000D02*
X154565968Y-113551000D01*
X148587500Y-116500000D02*
X151000000Y-116500000D01*
X155783032Y-111050000D02*
X156137500Y-111050000D01*
X154565968Y-113551000D02*
X155174000Y-112942968D01*
X155174000Y-111659032D02*
X155783032Y-111050000D01*
X151000000Y-116500000D02*
X151000000Y-115585354D01*
X147587500Y-115500000D02*
X148587500Y-116500000D01*
%TO.N,Net-(D1-A)*%
X151937500Y-109125000D02*
X151937500Y-108000000D01*
X149937500Y-110000000D02*
X140500000Y-110000000D01*
X153862500Y-111050000D02*
X151937500Y-109125000D01*
X151937500Y-108000000D02*
X149937500Y-110000000D01*
%TO.N,Net-(U1-FB)*%
X148599000Y-115685160D02*
X148914840Y-116001000D01*
X150017254Y-116001000D02*
X153068254Y-112950000D01*
X148283160Y-113999000D02*
X148599000Y-114314840D01*
X148914840Y-116001000D02*
X150017254Y-116001000D01*
X145185160Y-114813500D02*
X145999660Y-113999000D01*
X143499000Y-114497660D02*
X143814840Y-114813500D01*
X143814840Y-114813500D02*
X145185160Y-114813500D01*
X148599000Y-114314840D02*
X148599000Y-115685160D01*
X145001340Y-112000000D02*
X143499000Y-113502340D01*
X143499000Y-113502340D02*
X143499000Y-114497660D01*
X153068254Y-112950000D02*
X153862500Y-112950000D01*
X145682500Y-111500000D02*
X147087500Y-111500000D01*
X145999660Y-113999000D02*
X148283160Y-113999000D01*
X147087500Y-111500000D02*
X147587500Y-112000000D01*
X147587500Y-112000000D02*
X145001340Y-112000000D01*
%TO.N,GND*%
X161167760Y-116000000D02*
X158000000Y-116000000D01*
X148412500Y-113500000D02*
X149412500Y-114500000D01*
X161000000Y-112000000D02*
X162151000Y-113151000D01*
X143335160Y-110499000D02*
X147911500Y-110499000D01*
X156474000Y-109026000D02*
X156974000Y-109026000D01*
X153862500Y-112000000D02*
X154216968Y-112000000D01*
X139614840Y-112449000D02*
X141385160Y-112449000D01*
X162151000Y-115016760D02*
X161167760Y-116000000D01*
X145000000Y-113500000D02*
X144500000Y-114000000D01*
X156200000Y-117800000D02*
X141863840Y-117800000D01*
X149412500Y-114500000D02*
X149412500Y-115000000D01*
X152912500Y-112000000D02*
X153862500Y-112000000D01*
X149412500Y-115500000D02*
X152912500Y-112000000D01*
X154826000Y-110674000D02*
X156474000Y-109026000D01*
X156974000Y-109026000D02*
X158000000Y-108000000D01*
X148412500Y-113500000D02*
X145000000Y-113500000D01*
X139299000Y-112764840D02*
X139614840Y-112449000D01*
X162151000Y-113151000D02*
X162151000Y-115016760D01*
X158000000Y-115500000D02*
X158000000Y-116000000D01*
X154216968Y-112000000D02*
X154826000Y-111390968D01*
X139299000Y-115235160D02*
X139299000Y-112764840D01*
X149412500Y-112500000D02*
X148412500Y-113500000D01*
X149412500Y-112000000D02*
X149412500Y-112500000D01*
X147911500Y-110499000D02*
X149412500Y-112000000D01*
X154826000Y-111390968D02*
X154826000Y-110674000D01*
X141385160Y-112449000D02*
X143335160Y-110499000D01*
X141863840Y-117800000D02*
X139299000Y-115235160D01*
X158000000Y-116000000D02*
X156200000Y-117800000D01*
%TO.N,+5V*%
X143899000Y-117399000D02*
X140500000Y-114000000D01*
X156100000Y-116000000D02*
X153937500Y-116000000D01*
X153937500Y-116000000D02*
X152538500Y-117399000D01*
X157560000Y-114540000D02*
X156100000Y-116000000D01*
X152538500Y-117399000D02*
X143899000Y-117399000D01*
X157560000Y-114540000D02*
X161000000Y-114540000D01*
X141357500Y-114000000D02*
X143857500Y-111500000D01*
X140500000Y-114000000D02*
X141357500Y-114000000D01*
%TO.N,Net-(D2-K)*%
X151764499Y-116998000D02*
X145673000Y-116998000D01*
X145673000Y-116998000D02*
X144500000Y-115825000D01*
X152062500Y-116000000D02*
X152062500Y-116699999D01*
X152062500Y-116699999D02*
X151764499Y-116998000D01*
%TD*%
M02*
