%TF.GenerationSoftware,KiCad,Pcbnew,9.0.1*%
%TF.CreationDate,2025-05-30T03:40:45-05:00*%
%TF.ProjectId,ME433HW15,4d453433-3348-4573-9135-2e6b69636164,rev?*%
%TF.SameCoordinates,Original*%
%TF.FileFunction,Legend,Top*%
%TF.FilePolarity,Positive*%
%FSLAX46Y46*%
G04 Gerber Fmt 4.6, Leading zero omitted, Abs format (unit mm)*
G04 Created by KiCad (PCBNEW 9.0.1) date 2025-05-30 03:40:45*
%MOMM*%
%LPD*%
G01*
G04 APERTURE LIST*
%ADD10C,0.150000*%
%ADD11C,0.120000*%
G04 APERTURE END LIST*
D10*
X143304819Y-115079166D02*
X142828628Y-115412499D01*
X143304819Y-115650594D02*
X142304819Y-115650594D01*
X142304819Y-115650594D02*
X142304819Y-115269642D01*
X142304819Y-115269642D02*
X142352438Y-115174404D01*
X142352438Y-115174404D02*
X142400057Y-115126785D01*
X142400057Y-115126785D02*
X142495295Y-115079166D01*
X142495295Y-115079166D02*
X142638152Y-115079166D01*
X142638152Y-115079166D02*
X142733390Y-115126785D01*
X142733390Y-115126785D02*
X142781009Y-115174404D01*
X142781009Y-115174404D02*
X142828628Y-115269642D01*
X142828628Y-115269642D02*
X142828628Y-115650594D01*
X142638152Y-114222023D02*
X143304819Y-114222023D01*
X142257200Y-114460118D02*
X142971485Y-114698213D01*
X142971485Y-114698213D02*
X142971485Y-114079166D01*
X152833333Y-106904819D02*
X152357143Y-106904819D01*
X152357143Y-106904819D02*
X152357143Y-105904819D01*
X153690476Y-106904819D02*
X153119048Y-106904819D01*
X153404762Y-106904819D02*
X153404762Y-105904819D01*
X153404762Y-105904819D02*
X153309524Y-106047676D01*
X153309524Y-106047676D02*
X153214286Y-106142914D01*
X153214286Y-106142914D02*
X153119048Y-106190533D01*
X154238095Y-109054819D02*
X154238095Y-109864342D01*
X154238095Y-109864342D02*
X154285714Y-109959580D01*
X154285714Y-109959580D02*
X154333333Y-110007200D01*
X154333333Y-110007200D02*
X154428571Y-110054819D01*
X154428571Y-110054819D02*
X154619047Y-110054819D01*
X154619047Y-110054819D02*
X154714285Y-110007200D01*
X154714285Y-110007200D02*
X154761904Y-109959580D01*
X154761904Y-109959580D02*
X154809523Y-109864342D01*
X154809523Y-109864342D02*
X154809523Y-109054819D01*
X155809523Y-110054819D02*
X155238095Y-110054819D01*
X155523809Y-110054819D02*
X155523809Y-109054819D01*
X155523809Y-109054819D02*
X155428571Y-109197676D01*
X155428571Y-109197676D02*
X155333333Y-109292914D01*
X155333333Y-109292914D02*
X155238095Y-109340533D01*
X156883333Y-106679580D02*
X156835714Y-106727200D01*
X156835714Y-106727200D02*
X156692857Y-106774819D01*
X156692857Y-106774819D02*
X156597619Y-106774819D01*
X156597619Y-106774819D02*
X156454762Y-106727200D01*
X156454762Y-106727200D02*
X156359524Y-106631961D01*
X156359524Y-106631961D02*
X156311905Y-106536723D01*
X156311905Y-106536723D02*
X156264286Y-106346247D01*
X156264286Y-106346247D02*
X156264286Y-106203390D01*
X156264286Y-106203390D02*
X156311905Y-106012914D01*
X156311905Y-106012914D02*
X156359524Y-105917676D01*
X156359524Y-105917676D02*
X156454762Y-105822438D01*
X156454762Y-105822438D02*
X156597619Y-105774819D01*
X156597619Y-105774819D02*
X156692857Y-105774819D01*
X156692857Y-105774819D02*
X156835714Y-105822438D01*
X156835714Y-105822438D02*
X156883333Y-105870057D01*
X157835714Y-106774819D02*
X157264286Y-106774819D01*
X157550000Y-106774819D02*
X157550000Y-105774819D01*
X157550000Y-105774819D02*
X157454762Y-105917676D01*
X157454762Y-105917676D02*
X157359524Y-106012914D01*
X157359524Y-106012914D02*
X157264286Y-106060533D01*
X138454819Y-112738094D02*
X137454819Y-112738094D01*
X137454819Y-112738094D02*
X137454819Y-112499999D01*
X137454819Y-112499999D02*
X137502438Y-112357142D01*
X137502438Y-112357142D02*
X137597676Y-112261904D01*
X137597676Y-112261904D02*
X137692914Y-112214285D01*
X137692914Y-112214285D02*
X137883390Y-112166666D01*
X137883390Y-112166666D02*
X138026247Y-112166666D01*
X138026247Y-112166666D02*
X138216723Y-112214285D01*
X138216723Y-112214285D02*
X138311961Y-112261904D01*
X138311961Y-112261904D02*
X138407200Y-112357142D01*
X138407200Y-112357142D02*
X138454819Y-112499999D01*
X138454819Y-112499999D02*
X138454819Y-112738094D01*
X138454819Y-111214285D02*
X138454819Y-111785713D01*
X138454819Y-111499999D02*
X137454819Y-111499999D01*
X137454819Y-111499999D02*
X137597676Y-111595237D01*
X137597676Y-111595237D02*
X137692914Y-111690475D01*
X137692914Y-111690475D02*
X137740533Y-111785713D01*
X165051666Y-106644819D02*
X165051666Y-107359104D01*
X165051666Y-107359104D02*
X165004047Y-107501961D01*
X165004047Y-107501961D02*
X164908809Y-107597200D01*
X164908809Y-107597200D02*
X164765952Y-107644819D01*
X164765952Y-107644819D02*
X164670714Y-107644819D01*
X166051666Y-107644819D02*
X165480238Y-107644819D01*
X165765952Y-107644819D02*
X165765952Y-106644819D01*
X165765952Y-106644819D02*
X165670714Y-106787676D01*
X165670714Y-106787676D02*
X165575476Y-106882914D01*
X165575476Y-106882914D02*
X165480238Y-106930533D01*
X148333333Y-110804819D02*
X148000000Y-110328628D01*
X147761905Y-110804819D02*
X147761905Y-109804819D01*
X147761905Y-109804819D02*
X148142857Y-109804819D01*
X148142857Y-109804819D02*
X148238095Y-109852438D01*
X148238095Y-109852438D02*
X148285714Y-109900057D01*
X148285714Y-109900057D02*
X148333333Y-109995295D01*
X148333333Y-109995295D02*
X148333333Y-110138152D01*
X148333333Y-110138152D02*
X148285714Y-110233390D01*
X148285714Y-110233390D02*
X148238095Y-110281009D01*
X148238095Y-110281009D02*
X148142857Y-110328628D01*
X148142857Y-110328628D02*
X147761905Y-110328628D01*
X148714286Y-109900057D02*
X148761905Y-109852438D01*
X148761905Y-109852438D02*
X148857143Y-109804819D01*
X148857143Y-109804819D02*
X149095238Y-109804819D01*
X149095238Y-109804819D02*
X149190476Y-109852438D01*
X149190476Y-109852438D02*
X149238095Y-109900057D01*
X149238095Y-109900057D02*
X149285714Y-109995295D01*
X149285714Y-109995295D02*
X149285714Y-110090533D01*
X149285714Y-110090533D02*
X149238095Y-110233390D01*
X149238095Y-110233390D02*
X148666667Y-110804819D01*
X148666667Y-110804819D02*
X149285714Y-110804819D01*
X152261905Y-114804819D02*
X152261905Y-113804819D01*
X152261905Y-113804819D02*
X152500000Y-113804819D01*
X152500000Y-113804819D02*
X152642857Y-113852438D01*
X152642857Y-113852438D02*
X152738095Y-113947676D01*
X152738095Y-113947676D02*
X152785714Y-114042914D01*
X152785714Y-114042914D02*
X152833333Y-114233390D01*
X152833333Y-114233390D02*
X152833333Y-114376247D01*
X152833333Y-114376247D02*
X152785714Y-114566723D01*
X152785714Y-114566723D02*
X152738095Y-114661961D01*
X152738095Y-114661961D02*
X152642857Y-114757200D01*
X152642857Y-114757200D02*
X152500000Y-114804819D01*
X152500000Y-114804819D02*
X152261905Y-114804819D01*
X153214286Y-113900057D02*
X153261905Y-113852438D01*
X153261905Y-113852438D02*
X153357143Y-113804819D01*
X153357143Y-113804819D02*
X153595238Y-113804819D01*
X153595238Y-113804819D02*
X153690476Y-113852438D01*
X153690476Y-113852438D02*
X153738095Y-113900057D01*
X153738095Y-113900057D02*
X153785714Y-113995295D01*
X153785714Y-113995295D02*
X153785714Y-114090533D01*
X153785714Y-114090533D02*
X153738095Y-114233390D01*
X153738095Y-114233390D02*
X153166667Y-114804819D01*
X153166667Y-114804819D02*
X153785714Y-114804819D01*
X156883333Y-114679580D02*
X156835714Y-114727200D01*
X156835714Y-114727200D02*
X156692857Y-114774819D01*
X156692857Y-114774819D02*
X156597619Y-114774819D01*
X156597619Y-114774819D02*
X156454762Y-114727200D01*
X156454762Y-114727200D02*
X156359524Y-114631961D01*
X156359524Y-114631961D02*
X156311905Y-114536723D01*
X156311905Y-114536723D02*
X156264286Y-114346247D01*
X156264286Y-114346247D02*
X156264286Y-114203390D01*
X156264286Y-114203390D02*
X156311905Y-114012914D01*
X156311905Y-114012914D02*
X156359524Y-113917676D01*
X156359524Y-113917676D02*
X156454762Y-113822438D01*
X156454762Y-113822438D02*
X156597619Y-113774819D01*
X156597619Y-113774819D02*
X156692857Y-113774819D01*
X156692857Y-113774819D02*
X156835714Y-113822438D01*
X156835714Y-113822438D02*
X156883333Y-113870057D01*
X157264286Y-113870057D02*
X157311905Y-113822438D01*
X157311905Y-113822438D02*
X157407143Y-113774819D01*
X157407143Y-113774819D02*
X157645238Y-113774819D01*
X157645238Y-113774819D02*
X157740476Y-113822438D01*
X157740476Y-113822438D02*
X157788095Y-113870057D01*
X157788095Y-113870057D02*
X157835714Y-113965295D01*
X157835714Y-113965295D02*
X157835714Y-114060533D01*
X157835714Y-114060533D02*
X157788095Y-114203390D01*
X157788095Y-114203390D02*
X157216667Y-114774819D01*
X157216667Y-114774819D02*
X157835714Y-114774819D01*
X148333333Y-113804819D02*
X148000000Y-113328628D01*
X147761905Y-113804819D02*
X147761905Y-112804819D01*
X147761905Y-112804819D02*
X148142857Y-112804819D01*
X148142857Y-112804819D02*
X148238095Y-112852438D01*
X148238095Y-112852438D02*
X148285714Y-112900057D01*
X148285714Y-112900057D02*
X148333333Y-112995295D01*
X148333333Y-112995295D02*
X148333333Y-113138152D01*
X148333333Y-113138152D02*
X148285714Y-113233390D01*
X148285714Y-113233390D02*
X148238095Y-113281009D01*
X148238095Y-113281009D02*
X148142857Y-113328628D01*
X148142857Y-113328628D02*
X147761905Y-113328628D01*
X148666667Y-112804819D02*
X149285714Y-112804819D01*
X149285714Y-112804819D02*
X148952381Y-113185771D01*
X148952381Y-113185771D02*
X149095238Y-113185771D01*
X149095238Y-113185771D02*
X149190476Y-113233390D01*
X149190476Y-113233390D02*
X149238095Y-113281009D01*
X149238095Y-113281009D02*
X149285714Y-113376247D01*
X149285714Y-113376247D02*
X149285714Y-113614342D01*
X149285714Y-113614342D02*
X149238095Y-113709580D01*
X149238095Y-113709580D02*
X149190476Y-113757200D01*
X149190476Y-113757200D02*
X149095238Y-113804819D01*
X149095238Y-113804819D02*
X148809524Y-113804819D01*
X148809524Y-113804819D02*
X148714286Y-113757200D01*
X148714286Y-113757200D02*
X148666667Y-113709580D01*
X144603333Y-110304819D02*
X144270000Y-109828628D01*
X144031905Y-110304819D02*
X144031905Y-109304819D01*
X144031905Y-109304819D02*
X144412857Y-109304819D01*
X144412857Y-109304819D02*
X144508095Y-109352438D01*
X144508095Y-109352438D02*
X144555714Y-109400057D01*
X144555714Y-109400057D02*
X144603333Y-109495295D01*
X144603333Y-109495295D02*
X144603333Y-109638152D01*
X144603333Y-109638152D02*
X144555714Y-109733390D01*
X144555714Y-109733390D02*
X144508095Y-109781009D01*
X144508095Y-109781009D02*
X144412857Y-109828628D01*
X144412857Y-109828628D02*
X144031905Y-109828628D01*
X145555714Y-110304819D02*
X144984286Y-110304819D01*
X145270000Y-110304819D02*
X145270000Y-109304819D01*
X145270000Y-109304819D02*
X145174762Y-109447676D01*
X145174762Y-109447676D02*
X145079524Y-109542914D01*
X145079524Y-109542914D02*
X144984286Y-109590533D01*
D11*
%TO.C,R4*%
X143765000Y-115139564D02*
X143765000Y-114685436D01*
X145235000Y-115139564D02*
X145235000Y-114685436D01*
%TO.C,L1*%
X152600378Y-107440000D02*
X153399622Y-107440000D01*
X152600378Y-108560000D02*
X153399622Y-108560000D01*
%TO.C,U1*%
X155000000Y-110440000D02*
X154200000Y-110440000D01*
X155000000Y-110440000D02*
X155800000Y-110440000D01*
X155000000Y-113560000D02*
X154200000Y-113560000D01*
X155000000Y-113560000D02*
X155800000Y-113560000D01*
X153700000Y-110490000D02*
X153460000Y-110160000D01*
X153940000Y-110160000D01*
X153700000Y-110490000D01*
G36*
X153700000Y-110490000D02*
G01*
X153460000Y-110160000D01*
X153940000Y-110160000D01*
X153700000Y-110490000D01*
G37*
%TO.C,C1*%
X156788748Y-107265000D02*
X157311252Y-107265000D01*
X156788748Y-108735000D02*
X157311252Y-108735000D01*
%TO.C,D1*%
X138850000Y-115510000D02*
X138850000Y-110000000D01*
X138850000Y-115510000D02*
X142150000Y-115510000D01*
X142150000Y-115510000D02*
X142150000Y-110000000D01*
%TO.C,J1*%
X159730000Y-108190000D02*
X161000000Y-108190000D01*
X159730000Y-109460000D02*
X159730000Y-108190000D01*
X162077358Y-111570000D02*
X162390000Y-111570000D01*
X162077358Y-112430000D02*
X162390000Y-112430000D01*
X162077358Y-114110000D02*
X162390000Y-114110000D01*
X162077358Y-114970000D02*
X162390000Y-114970000D01*
X162160000Y-109030000D02*
X162390000Y-109030000D01*
X162160000Y-109890000D02*
X162390000Y-109890000D01*
X162390000Y-108080000D02*
X162390000Y-115920000D01*
X162390000Y-110730000D02*
X165150000Y-110730000D01*
X162390000Y-113270000D02*
X165150000Y-113270000D01*
X162390000Y-115920000D02*
X165150000Y-115920000D01*
X165150000Y-108080000D02*
X162390000Y-108080000D01*
X165150000Y-111570000D02*
X171150000Y-111570000D01*
X165150000Y-114110000D02*
X171150000Y-114110000D01*
X165150000Y-115920000D02*
X165150000Y-108080000D01*
X171150000Y-111570000D02*
X171150000Y-112430000D01*
X171150000Y-112430000D02*
X165150000Y-112430000D01*
X171150000Y-114110000D02*
X171150000Y-114970000D01*
X171150000Y-114970000D02*
X165150000Y-114970000D01*
X165150000Y-109030000D02*
X171150000Y-109030000D01*
X171150000Y-109890000D01*
X165150000Y-109890000D01*
X165150000Y-109030000D01*
G36*
X165150000Y-109030000D02*
G01*
X171150000Y-109030000D01*
X171150000Y-109890000D01*
X165150000Y-109890000D01*
X165150000Y-109030000D01*
G37*
%TO.C,R2*%
X148272936Y-111265000D02*
X148727064Y-111265000D01*
X148272936Y-112735000D02*
X148727064Y-112735000D01*
%TO.C,D2*%
X151315000Y-115040000D02*
X151315000Y-116960000D01*
X151315000Y-116960000D02*
X154000000Y-116960000D01*
X154000000Y-115040000D02*
X151315000Y-115040000D01*
%TO.C,C2*%
X156788748Y-115265000D02*
X157311252Y-115265000D01*
X156788748Y-116735000D02*
X157311252Y-116735000D01*
%TO.C,R3*%
X148272936Y-114265000D02*
X148727064Y-114265000D01*
X148272936Y-115735000D02*
X148727064Y-115735000D01*
%TO.C,R1*%
X144542936Y-110765000D02*
X144997064Y-110765000D01*
X144542936Y-112235000D02*
X144997064Y-112235000D01*
%TD*%
M02*
